<svg width="1038" height="996" viewBox="0 0 1038 996" fill="none" xmlns="http://www.w3.org/2000/svg">
<rect width="1038" height="996" fill="black"/>
<path d="M355.25 311.75H377.75V342H352.25C346.583 342 341.333 341.25 336.5 339.75C334.333 355.75 327.917 368.417 317.25 377.75C307.583 386.083 296 390.25 282.5 390.25C272 390.25 261.75 387.583 251.75 382.25V354.75C260.417 359.583 268.917 362 277.25 362C286.417 362 293.5 359 298.5 353C303.667 347.167 306.25 339 306.25 328.5V247.5L326.75 236.75L337.5 231V231.25L337.75 231V293.75C337.75 300.25 339.083 304.917 341.75 307.75C344.417 310.417 348.917 311.75 355.25 311.75ZM497.842 311.75H517.592V342H494.592C482.425 342 472.425 338.75 464.592 332.25C456.592 338.75 446.508 342 434.342 342H362.842V311.75H431.092C442.758 311.75 448.592 306 448.592 294.5V293C448.592 283.833 445.175 276.5 438.342 271C431.508 265.333 422.508 262.5 411.342 262.5C402.842 262.5 393.925 264.167 384.592 267.5V237.25L435.342 180.75H467.092L421.592 231.75C434.758 233.083 445.925 237 455.092 243.5C471.758 254.833 480.092 271.25 480.092 292.75V293.75C480.092 300.25 481.425 304.917 484.092 307.75C486.925 310.417 491.508 311.75 497.842 311.75ZM502.49 342V311.75H528.99C535.324 311.75 539.824 310.417 542.49 307.75C545.324 304.917 546.74 300.25 546.74 293.75V260.75L578.24 244.25V293.75C578.24 300.25 579.574 304.917 582.24 307.75C584.907 310.417 589.407 311.75 595.74 311.75H612.74C619.074 311.75 623.574 310.417 626.24 307.75C628.907 304.917 630.24 300.25 630.24 293.75V254.25L661.74 237.5V293.75C661.74 300.25 663.074 304.917 665.74 307.75C668.574 310.417 673.157 311.75 679.49 311.75H696.49C702.824 311.75 707.324 310.417 709.99 307.75C712.657 304.917 713.99 300.25 713.99 293.75V247.5L745.49 231V295.25C745.49 310.083 740.99 321.75 731.99 330.25C724.157 337.75 713.824 341.667 700.99 342H676.24C663.907 342 653.824 338.333 645.99 331C638.824 338.167 629.324 341.833 617.49 342H592.74C580.407 342 570.324 338.333 562.49 331C554.657 338.333 544.574 342 532.24 342H502.49Z" fill="white"/>
<path d="M434.75 491.5C422.75 480.5 411.25 475 400.25 475C395.083 475 390.833 476.5 387.5 479.5C384.333 482.333 382.75 486.167 382.75 491C382.75 497 384.667 501.667 388.5 505C392.5 508.333 400.333 512.083 412 516.25C423.667 520.083 431.833 523.917 436.5 527.75C444 533.917 447.75 542.5 447.75 553.5C447.75 570.667 439.833 584.25 424 594.25C409.833 603.083 391.667 607.5 369.5 607.5C341.833 607.5 321 599.583 307 583.75C296.667 571.917 291.5 557.417 291.5 540.25C291.5 527.083 294.583 515.583 300.75 505.75L330.75 499.5C324.083 510.833 320.75 522.75 320.75 535.25C320.75 548.417 324.917 558.667 333.25 566C341.583 573.5 353.667 577.25 369.5 577.25C385.5 577.25 397.667 574.75 406 569.75C413 565.417 416.5 559.917 416.5 553.25C416.5 549.75 415 546.917 412 544.75C409.167 542.417 403.25 539.667 394.25 536.5C379.75 531.333 369.75 526 364.25 520.5C356.75 513 353 503.083 353 490.75C353 476.083 358.083 464.667 368.25 456.5C375.917 450.167 384.833 447 395 447C412 447 425.25 452.917 434.75 464.75V491.5ZM352.75 662.75C347.75 662.75 343.75 661.167 340.75 658C337.75 655 336.25 651 336.25 646C336.25 641.167 337.75 637.25 340.75 634.25C343.75 631.25 347.75 629.75 352.75 629.75C357.75 629.75 361.667 631.167 364.5 634C367.5 637 369 641 369 646C369 657.167 363.583 662.75 352.75 662.75ZM391.25 662.75C386.25 662.75 382.25 661.25 379.25 658.25C376.25 655.25 374.75 651.167 374.75 646C374.75 635.167 380.25 629.75 391.25 629.75C396.25 629.75 400.167 631.167 403 634C406 637 407.5 641 407.5 646C407.5 657.167 402.083 662.75 391.25 662.75ZM570.432 529.75H592.932V560H567.432C561.765 560 556.515 559.25 551.682 557.75C549.515 573.75 543.098 586.417 532.432 595.75C522.765 604.083 511.182 608.25 497.682 608.25C487.182 608.25 476.932 605.583 466.932 600.25V572.75C475.598 577.583 484.098 580 492.432 580C501.598 580 508.682 577 513.682 571C518.848 565.167 521.432 557 521.432 546.5V465.5L541.932 454.75L552.682 449V449.25L552.932 449V511.75C552.932 518.25 554.265 522.917 556.932 525.75C559.598 528.417 564.098 529.75 570.432 529.75ZM667.023 529.75H689.523V560H664.023C651.857 560 641.773 556.75 633.773 550.25C625.773 556.75 615.69 560 603.523 560H578.023V529.75H600.523C606.857 529.75 611.357 528.417 614.023 525.75C616.69 522.917 618.023 518.25 618.023 511.75V465.5L649.523 449V511.75C649.523 518.25 650.857 522.917 653.523 525.75C656.19 528.417 660.69 529.75 667.023 529.75ZM602.273 582.75C607.273 582.75 611.19 584.167 614.023 587C617.023 590 618.523 594 618.523 599C618.523 610.167 613.107 615.75 602.273 615.75C597.273 615.75 593.273 614.25 590.273 611.25C587.273 608.25 585.773 604.167 585.773 599C585.773 588.167 591.273 582.75 602.273 582.75ZM640.773 582.75C645.773 582.75 649.69 584.167 652.523 587C655.523 590 657.023 594 657.023 599C657.023 610.167 651.607 615.75 640.773 615.75C635.773 615.75 631.773 614.25 628.773 611.25C625.773 608.25 624.273 604.167 624.273 599C624.273 588.167 629.773 582.75 640.773 582.75ZM692.459 423.75C687.459 423.75 683.459 422.25 680.459 419.25C677.459 416.25 675.959 412.167 675.959 407C675.959 396.167 681.459 390.75 692.459 390.75C697.459 390.75 701.376 392.25 704.209 395.25C707.209 398.083 708.709 402 708.709 407C708.709 418.167 703.292 423.75 692.459 423.75ZM730.959 423.75C725.959 423.75 721.959 422.25 718.959 419.25C715.959 416.25 714.459 412.167 714.459 407C714.459 396.167 719.959 390.75 730.959 390.75C735.959 390.75 739.876 392.25 742.709 395.25C745.709 398.083 747.209 402 747.209 407C747.209 418.167 741.792 423.75 730.959 423.75ZM674.459 560V529.75H696.959C703.292 529.75 707.792 528.417 710.459 525.75C713.126 522.917 714.459 518.25 714.459 511.75V465.5L745.959 449V513.25C745.959 528.417 741.292 540.25 731.959 548.75C723.792 556.25 713.126 560 699.959 560H674.459Z" fill="#BCF125"/>
<path d="M329.896 787.008L332.968 782.688C337.64 785.376 342.6 786.72 347.848 786.72C351.88 786.72 355.048 785.792 357.352 783.936C359.656 782.016 360.808 779.328 360.808 775.872C360.808 769.984 356.936 765.696 349.192 763.008C342.6 760.768 337.832 758.272 334.888 755.52C331.944 752.768 330.472 749.408 330.472 745.44C330.472 740.704 332.328 736.896 336.04 734.016C339.432 731.392 343.88 730.08 349.384 730.08C355.4 730.08 360.872 731.744 365.8 735.072L362.632 739.392C358.664 737.28 354.408 736.224 349.864 736.224C346.152 736.224 343.208 737.024 341.032 738.624C338.856 740.224 337.768 742.4 337.768 745.152C337.768 749.44 341.096 752.832 347.752 755.328C355.304 758.208 360.584 761.184 363.592 764.256C366.664 767.264 368.2 771.2 368.2 776.064C368.2 781.632 366.056 786.016 361.768 789.216C358.248 791.84 353.96 793.152 348.904 793.152C342.568 793.152 336.232 791.104 329.896 787.008ZM416.475 772.416H385.371C385.627 777.088 387.227 780.832 390.171 783.648C393.179 786.464 397.051 787.872 401.786 787.872C405.755 787.872 409.627 786.688 413.403 784.32L415.611 788.16C411.387 791.488 406.299 793.152 400.347 793.152C393.435 793.152 387.931 790.88 383.835 786.336C380.059 782.24 378.171 776.928 378.171 770.4C378.171 763.616 380.187 757.952 384.219 753.408C387.867 749.312 392.379 747.264 397.755 747.264C404.219 747.264 409.147 749.888 412.539 755.136C415.163 759.232 416.475 764.288 416.475 770.304V772.416ZM385.275 767.232H409.851C409.659 762.56 408.507 758.912 406.395 756.288C404.347 753.664 401.499 752.352 397.851 752.352C394.395 752.352 391.483 753.728 389.115 756.48C386.811 759.232 385.531 762.816 385.275 767.232ZM461.51 751.872L459.398 755.52C456.134 753.472 452.582 752.448 448.742 752.448C443.494 752.448 439.398 754.368 436.454 758.208C433.894 761.536 432.614 765.696 432.614 770.688C432.614 776 434.246 780.256 437.51 783.456C440.518 786.4 444.454 787.872 449.318 787.872C453.414 787.872 457.03 786.688 460.166 784.32L462.278 788.16C458.694 791.488 453.894 793.152 447.878 793.152C440.838 793.152 435.238 790.784 431.078 786.048C427.494 781.888 425.702 776.672 425.702 770.4C425.702 763.36 428.038 757.6 432.71 753.12C436.742 749.216 441.606 747.264 447.302 747.264C452.87 747.264 457.606 748.8 461.51 751.872ZM502.185 752.16L496.905 755.808C494.729 753.888 492.393 752.928 489.897 752.928C486.249 752.928 483.017 754.816 480.201 758.592V792H473.769V748.416H479.241L479.817 753.024H480.009C483.785 749.184 487.657 747.264 491.625 747.264C496.297 747.264 499.817 748.896 502.185 752.16ZM544.35 772.416H513.246C513.502 777.088 515.102 780.832 518.046 783.648C521.054 786.464 524.926 787.872 529.661 787.872C533.63 787.872 537.502 786.688 541.278 784.32L543.486 788.16C539.262 791.488 534.174 793.152 528.222 793.152C521.31 793.152 515.806 790.88 511.71 786.336C507.934 782.24 506.046 776.928 506.046 770.4C506.046 763.616 508.062 757.952 512.094 753.408C515.742 749.312 520.254 747.264 525.63 747.264C532.094 747.264 537.022 749.888 540.414 755.136C543.038 759.232 544.35 764.288 544.35 770.304V772.416ZM513.15 767.232H537.726C537.534 762.56 536.382 758.912 534.27 756.288C532.222 753.664 529.374 752.352 525.726 752.352C522.27 752.352 519.358 753.728 516.99 756.48C514.686 759.232 513.406 762.816 513.15 767.232Z" fill="white"/>
<path d="M566.057 753.696L565.961 780.96C565.961 785.632 567.849 787.968 571.625 787.968C573.737 787.968 575.817 787.424 577.865 786.336L580.169 789.888C577.033 792.064 573.737 793.152 570.281 793.152C566.889 793.152 564.265 792.096 562.409 789.984C560.553 787.872 559.625 784.928 559.625 781.152V753.696H553.001V748.416H559.721V738.912L566.057 735.648V748.416H579.401V753.696H566.057ZM623.675 792H618.875L617.915 787.296C614.011 791.2 609.147 793.152 603.323 793.152C598.907 793.152 595.387 791.936 592.763 789.504C590.139 787.008 588.827 783.712 588.827 779.616C588.827 769.632 596.123 764.64 610.715 764.64H617.339V764.064C617.339 756.448 613.627 752.64 606.203 752.64C601.979 752.64 597.915 754.048 594.011 756.864L591.899 753.312C596.315 749.28 601.691 747.264 608.027 747.264C613.083 747.264 616.955 748.832 619.643 751.968C622.331 755.104 623.675 759.616 623.675 765.504V792ZM617.339 769.344H611.483C600.987 769.344 595.739 772.576 595.739 779.04C595.739 781.792 596.539 783.968 598.139 785.568C599.803 787.104 602.107 787.872 605.051 787.872C607.611 787.872 610.075 787.232 612.443 785.952C614.811 784.672 616.443 783.072 617.339 781.152V769.344ZM666.904 752.16L661.624 755.808C659.448 753.888 657.112 752.928 654.616 752.928C650.968 752.928 647.736 754.816 644.92 758.592V792H638.488V748.416H643.96L644.536 753.024H644.728C648.504 749.184 652.376 747.264 656.344 747.264C661.016 747.264 664.536 748.896 666.904 752.16ZM712.432 748.416L693.424 798.624C690.544 806.432 686.576 810.336 681.52 810.336C678.32 810.336 675.12 809.184 671.92 806.88L674.032 803.424C676.208 804.576 678.128 805.152 679.792 805.152C682.992 805.152 685.776 802.176 688.144 796.224L689.872 792H688.24L671.44 748.416H678.256L692.08 785.376L705.52 748.416H712.432Z" fill="#BCF125"/>
</svg>
